<svg fill="#228BE6" xmlns="http://www.w3.org/2000/svg"  viewBox="0 0 50 50" width="25px" height="25px"><path d="M 29.542969 7.9785156 C 30.315969 8.2675156 31.014609 8.6845312 31.599609 9.2695312 C 32.842609 10.511531 33.403797 12.227031 33.341797 14.207031 C 33.222797 18.012031 30.807531 22.794844 26.519531 27.089844 C 22.109531 31.489844 17.189844 33.919922 13.339844 33.919922 C 11.489844 33.919922 9.8792187 33.359687 8.6992188 32.179688 C 8.1432188 31.624687 7.741125 30.964281 7.453125 30.238281 C 7.728125 33.454281 9.2062187 36.509953 11.949219 39.251953 C 14.565219 41.867953 17.812594 43.216797 21.433594 43.216797 C 24.644594 43.216797 31.367609 40.903875 35.849609 36.421875 C 40.766609 31.503875 43.065984 25.821328 42.583984 20.736328 C 42.293984 17.684328 41.003734 14.847484 38.677734 12.521484 C 35.885734 9.7294844 32.821969 8.2205156 29.542969 7.9785156 z M 26.960938 8.5390625 C 26.050938 8.5390625 25.06 8.6902344 24 8.9902344 C 21.303 9.7702344 18.408797 11.498109 15.716797 13.912109 C 15.308797 14.284109 14.899141 14.661406 14.494141 15.066406 C 14.082141 15.478406 13.704125 15.893641 13.328125 16.306641 C 8.199125 22.046641 6.4451563 28.51375 9.4101562 31.46875 C 10.900156 32.95875 13.340781 33.308984 16.300781 32.458984 C 16.425781 32.422984 16.553687 32.372031 16.679688 32.332031 C 17.671688 29.339031 19.775063 26.125328 22.664062 23.236328 C 25.551062 20.349328 28.760953 18.246906 31.751953 17.253906 C 31.791953 17.126906 31.844859 16.996141 31.880859 16.869141 C 32.740859 13.919141 32.390391 11.470469 30.900391 9.9804688 C 29.940391 9.0204688 28.590937 8.5390625 26.960938 8.5390625 z M 35.384766 24.78125 C 35.659766 24.81225 35.856172 25.058031 35.826172 25.332031 L 35.542969 27.878906 C 35.516969 28.111906 35.333562 28.294313 35.101562 28.320312 L 33 28.554688 L 33 31.5 C 33 31.776 32.776 32 32.5 32 L 29.554688 32 L 29.322266 34.101562 C 29.296266 34.334562 29.112859 34.516969 28.880859 34.542969 L 26.333984 34.826172 C 26.314984 34.828172 26.296344 34.828125 26.277344 34.828125 C 26.025344 34.828125 25.81025 34.640766 25.78125 34.384766 C 25.75125 34.110766 25.948656 33.863031 26.222656 33.832031 L 28.371094 33.59375 L 28.609375 31.445312 C 28.637375 31.191312 28.850469 31 29.105469 31 L 32 31 L 32 28.105469 C 32 27.850469 32.191313 27.637375 32.445312 27.609375 L 34.59375 27.371094 L 34.832031 25.222656 C 34.863031 24.947656 35.117766 24.75825 35.384766 24.78125 z"/></svg>